<?xml version="1.0" encoding="UTF-8" standalone="no"?>
<svg
   xmlns:dc="http://purl.org/dc/elements/1.1/"
   xmlns:cc="http://creativecommons.org/ns#"
   xmlns:rdf="http://www.w3.org/1999/02/22-rdf-syntax-ns#"
   xmlns:svg="http://www.w3.org/2000/svg"
   xmlns="http://www.w3.org/2000/svg"
   xmlns:sodipodi="http://sodipodi.sourceforge.net/DTD/sodipodi-0.dtd"
   xmlns:inkscape="http://www.inkscape.org/namespaces/inkscape"
   height="1024"
   width="1024"
   version="1.1"
   id="svg10"
   sodipodi:docname="logo.svg"
   inkscape:version="0.92.5 (2060ec1f9f, 2020-04-08)">
  <metadata
     id="metadata16">
    <rdf:RDF>
      <cc:Work
         rdf:about="">
        <dc:format>image/svg+xml</dc:format>
        <dc:type
           rdf:resource="http://purl.org/dc/dcmitype/StillImage" />
      </cc:Work>
    </rdf:RDF>
  </metadata>
  <defs
     id="defs14" />
  <sodipodi:namedview
     pagecolor="#ffffff"
     bordercolor="#666666"
     borderopacity="1"
     objecttolerance="10"
     gridtolerance="10"
     guidetolerance="10"
     inkscape:pageopacity="0"
     inkscape:pageshadow="2"
     inkscape:window-width="2560"
     inkscape:window-height="1413"
     id="namedview12"
     showgrid="false"
     inkscape:zoom="0.4609375"
     inkscape:cx="439.96064"
     inkscape:cy="375.73346"
     inkscape:window-x="0"
     inkscape:window-y="27"
     inkscape:window-maximized="1"
     inkscape:current-layer="svg10" />
  <path
     style="stroke-width:4.16261005;fill:#f05138;fill-opacity:1"
     d="M 919.30078,653.52148 V 427.38672 c 21.2165,-26.70928 41.30684,-56.1715 56.69922,-80.95899 -23.52291,-40.04431 -52.34486,-75.82917 -83.15234,-108.98437 -28.57217,14.38182 -56.32515,30.67444 -82.53711,48.01172 -13.11639,-13.0373 -27.88953,-23.70214 -42.40039,-34.84961 -14.25695,-11.45134 -30.32318,-19.84677 -45.5625,-29.62891 4.53724,-33.78791 6.7803,-67.0514 7.68359,-101.76758 C 690.71123,99.419944 648.78198,86.299151 606.36914,76.875 c -16.9335,28.45977 -32.41939,59.27922 -45.90625,89.4082 -15.99275,-2.67239 -32.05995,-3.66203 -48.14844,-3.85351 v -0.0254 c -0.11239,0 -0.21676,0.0254 -0.3125,0.0254 -0.0999,0 -0.20478,-0.0254 -0.30468,-0.0254 v 0.0254 c -16.11763,0.19148 -32.17106,1.18112 -48.16797,3.85351 -13.47854,-30.12898 -28.95559,-60.94843 -45.91407,-89.4082 -42.39203,9.424151 -84.32671,22.544944 -123.64257,42.33398 0.89912,34.71618 3.14362,67.97967 7.69336,101.76758 -15.26846,9.78214 -31.31507,18.17757 -45.57618,29.62891 -14.49005,11.14747 -29.2896,21.81231 -42.41015,34.84961 C 187.46773,268.1178 159.72502,251.82518 131.14453,237.44336 100.33705,270.59856 71.53124,306.38342 48,346.42773 c 18.493057,29.02877 38.329489,58.20569 56.69922,80.95899 v 197.7832 114.17969 C 104.69922,882.4352 286.211,951.2091 511.72461,952 h 0.27344 0.27929 c 225.51362,-0.7909 406.96289,-69.5648 406.96289,-212.65039 z"
     id="path2"
     inkscape:connector-curvature="0"
     sodipodi:nodetypes="ccccccccccccscccccccccccccccccc" />
  <g
     id="g827"
     transform="matrix(5.6128673,0,0,5.6128673,1646.7429,-1666.9806)">
	
	<path
   id="path825"
   d="m -170.34933,410.91588 c 0.1,-0.4 0.2,-0.8 0.3,-1.2 4.4,-17.5 -6.3,-38.3 -24.5,-49.2 8,10.8 11.5,23.9 8.4,35.3 -0.3,1 -0.6,2 -1,3 -0.4,-0.3 -0.9,-0.6 -1.6,-0.9 0,0 -18.1,-11.2 -37.7,-30.9 -0.5,-0.5 10.5,15.7 22.9,28.8 -5.9,-3.3 -22.2,-15.2 -32.6,-24.6 1.3,2.1 2.8,4.2 4.4,6.1 8.6,11 19.9,24.5 33.4,34.9 -9.5,5.8 -22.9,6.3 -36.2,0 -3.3,-1.5 -6.4,-3.4 -9.3,-5.5 5.6,9 14.3,16.8 24.9,21.4 12.6,5.4 25.2,5.1 34.5,0.1 v 0 c 0,0 0.1,0 0.1,-0.1 0.4,-0.2 0.8,-0.5 1.2,-0.7 4.5,-2.3 13.3,-4.6 18.1,4.6 1.4,2.1 3.9,-9.9 -5.3,-21.1 0,0 0,0 0,0 z"
   inkscape:connector-curvature="0"
   style="fill:#ffffff" />

</g>
</svg>
